<svg width="101" height="41" viewBox="0 0 101 41" fill="none" xmlns="http://www.w3.org/2000/svg">
<g clip-path="url(#clip0_3_251)">
<path d="M0.0402172 24.6595C0.784235 24.5791 1.46793 24.3177 1.46793 22.9302V15.5503H-0.0201086V14.8867H1.46793C1.60869 11.7297 3.45868 10.2618 5.52986 10.2417C6.37443 10.2417 7.88257 10.5232 8.82768 12.0514L7.13855 13.1373L6.95758 13.0569C6.67606 11.5688 6.09291 10.8449 5.34889 10.8449C4.54454 10.865 3.96139 11.8101 3.96139 13.1574V14.8867H6.65595L6.63584 15.5503H3.96139V22.9302C3.96139 24.3177 4.76574 24.5791 5.57008 24.6595V24.9612H0.0402172V24.6595ZM8.89817 25.1421C7.20905 25.1421 6.00253 23.9758 6.00253 22.3873C6.00253 20.1954 8.29491 18.828 11.6329 19.3911V18.1443C11.6329 16.6965 10.6074 16.0933 9.48132 16.0933C8.53621 16.0933 7.39002 16.5155 6.56557 17.7623L6.26394 17.6818C6.76666 16.1737 8.25469 14.8063 10.3862 14.7661C12.5378 14.746 14.1063 16.0933 14.1063 18.0237V22.9302C14.1063 23.4128 14.1666 23.8552 14.5085 23.8552C14.5889 23.8552 14.7297 23.8351 14.8302 23.7747L14.971 23.8954C14.6894 24.4987 14.0862 25.122 13.2014 25.122C12.2965 25.122 11.7134 24.4987 11.6329 23.7345C11.0699 24.4785 10.165 25.1421 8.89817 25.1421ZM8.35524 22.0655C8.35524 23.0508 8.83784 23.9959 9.96393 23.9959C10.6677 23.9959 11.2509 23.5938 11.6329 23.0709V19.9139C9.62208 19.6525 8.35524 20.5373 8.35524 22.0655ZM14.6303 24.6595C15.3945 24.5791 16.1184 24.3177 16.1184 22.9302V12.5541C16.1184 11.1667 15.3744 11.046 14.6303 11.0862L14.57 10.8047L18.6118 10.0808V16.6965C19.2955 15.5503 20.4216 14.7661 21.7689 14.7661C23.3575 14.7661 24.9058 15.8318 24.9058 17.9835V22.9302C24.9058 24.3177 25.6096 24.5791 26.3536 24.6595V24.9612H21.1455V24.6595C21.8091 24.5791 22.4124 24.3177 22.4124 22.9302V18.3052C22.4124 16.9378 21.5276 16.3748 20.6428 16.3547C19.939 16.3547 19.2151 16.6764 18.6118 17.2998V22.9302C18.6118 24.3177 19.2754 24.5791 19.9993 24.6595V24.9612H14.6303V24.6595ZM30.7835 25.1421C28.3905 25.1421 26.0579 23.3525 26.0579 19.934C26.0579 16.7367 27.9482 14.7661 30.6628 14.7661C33.5585 14.7661 34.9661 17.0384 34.9459 19.6726H28.6318C28.7324 22.4074 30.0797 23.7144 31.7487 23.7144C32.7943 23.7144 33.84 23.2318 34.7046 22.1661L34.9459 22.2264C34.4432 23.634 32.9954 25.1421 30.7835 25.1421ZM28.6318 19.0492H32.4726C32.4324 17.34 31.8894 15.3895 30.6226 15.3895C29.3155 15.3895 28.7123 17.4606 28.6318 19.0492ZM40.2599 25.1421C37.867 25.1421 35.5344 23.3525 35.5344 19.934C35.5344 16.7367 37.4246 14.7661 40.1393 14.7661C43.0349 14.7661 44.4425 17.0384 44.4224 19.6726H38.1083C38.2088 22.4074 39.5561 23.7144 41.2251 23.7144C42.2708 23.7144 43.3164 23.2318 44.1811 22.1661L44.4224 22.2264C43.9197 23.634 42.4719 25.1421 40.2599 25.1421ZM38.1083 19.0492H41.949C41.9088 17.34 41.3659 15.3895 40.099 15.3895C38.792 15.3895 38.1887 17.4606 38.1083 19.0492ZM56.2255 24.6595C56.8891 24.5791 57.4722 24.3177 57.4722 22.9302V18.3052C57.4722 16.9981 56.688 16.415 55.7228 16.415C55.0994 16.415 54.476 16.6965 53.8929 17.2797C53.9331 17.5009 53.9532 17.7221 53.9532 17.9835V22.9302C53.9532 24.3177 54.5565 24.5791 55.22 24.6595V24.9612H50.2733V24.6595C50.9369 24.5791 51.5201 24.3177 51.5201 22.9302V18.3052C51.5201 16.978 50.7559 16.415 49.7907 16.415C49.1472 16.415 48.544 16.6965 48.0011 17.2596V22.9302C48.0011 24.3177 48.6043 24.5791 49.3081 24.6595V24.9612H44.0799V24.6595C44.844 24.5791 45.5679 24.3177 45.5679 22.9302V16.9177C45.5679 15.5302 44.844 15.2688 44.0799 15.1884V14.8867H48.0011V16.7166C48.7451 15.5101 49.7505 14.7661 51.0777 14.7661C52.3646 14.7661 53.4505 15.4699 53.8124 16.8775C54.5766 15.5704 55.6423 14.7661 57.0097 14.7661C58.5782 14.7661 59.9255 15.8318 59.9255 17.9835V22.9302C59.9255 24.3177 60.6293 24.5791 61.3532 24.6595V24.9612H56.2255V24.6595ZM62.3504 25.1019C60.9026 25.1019 60.9026 22.9503 62.3504 22.9503C63.758 22.9503 63.758 25.1019 62.3504 25.1019ZM65.9204 16.978C65.84 15.6911 65.4177 15.4297 64.5932 15.3895L64.6737 15.128L67.0063 15.0476L67.3481 22.8095L72.0937 15.0275L72.6367 15.0878L73.059 23.6139C74.1046 22.6688 74.8486 21.784 75.3111 21.1003C77.1812 18.5063 76.9801 16.6362 76.4372 15.5101L76.4573 15.3492L77.7443 14.9069C78.0861 15.8117 78.6089 17.6617 75.9345 21.1003C75.1502 22.1057 74.0242 23.3122 72.2144 24.9612H71.9329L71.591 16.7971L66.5438 24.9612H66.3226L65.9204 16.978ZM80.9749 25.2226C78.7429 25.1622 77.3755 23.1715 78.2 19.8938C78.9842 16.8775 81.357 14.8666 83.6092 14.927C85.8412 14.9672 87.088 16.9378 86.2836 20.1552C85.4994 23.2519 83.2271 25.2829 80.9749 25.2226ZM79.5271 19.9139C78.8434 22.5481 79.4065 24.7198 81.1157 24.7601C82.8249 24.8003 84.2929 22.6487 84.9564 20.115C85.62 17.5813 85.1977 15.4297 83.4885 15.3895C81.7793 15.3492 80.1505 17.5009 79.5271 19.9139ZM88.5455 17.0786C88.9678 15.6911 88.8471 15.3492 87.8618 15.3291L87.9422 15.0677H90.3754L88.9678 19.6726C91.0188 15.3492 92.9694 14.7661 94.2161 15.0476L93.7335 16.2742L93.6128 16.2541C92.2052 15.852 89.9531 17.1389 87.8618 23.3324L87.3591 24.9612H86.1123L88.5455 17.0786ZM95.4739 12.3128C95.8962 10.9253 95.3131 10.8047 94.3076 10.9455L94.3277 10.7042L97.4044 10.0808L94.75 18.7074C97.6054 18.2851 98.9326 16.5558 99.556 15.1683L99.6565 15.0677H100.903C100.36 16.4753 99.0131 18.0438 95.6951 18.828C95.8359 18.9286 95.9565 19.0894 96.037 19.371L97.2837 23.0106C97.6256 23.9959 97.9473 24.559 98.3897 24.559C98.9527 24.559 99.6967 23.7144 100.441 22.4878L100.642 22.5883C99.9783 23.9155 98.9326 25.2226 97.7864 25.2226C96.962 25.2226 96.5397 24.5389 96.2984 23.7949L94.7299 19.009C94.7098 19.0291 94.6897 19.0291 94.6495 19.0291L92.8397 24.9612H91.6131L95.4739 12.3128Z" fill="black" style="fill:black;fill-opacity:1;"/>
</g>
<defs>
<clipPath id="clip0_3_251">
<rect width="101" height="39.996" fill="white" style="fill:white;fill-opacity:1;" transform="translate(0 0.121994)"/>
</clipPath>
</defs>
</svg>
